# This file uses centimeters as units for non-parametric coordinates.

mtllib Cuadro.mtl
g default
v -6.187359 2.802325 7.114360
v -6.157344 2.802325 7.114360
v -6.187359 3.606017 7.114360
v -6.157344 3.606017 7.114360
v -6.187359 3.606017 5.932523
v -6.157344 3.606017 5.932523
v -6.187359 2.802325 5.932523
v -6.157344 2.802325 5.932523
vt 0.375000 0.000000
vt 0.625000 0.000000
vt 0.375000 0.250000
vt 0.625000 0.250000
vt 0.375000 0.500000
vt 0.625000 0.500000
vt 0.375000 0.750000
vt 0.625000 0.750000
vt 0.375000 1.000000
vt 0.625000 1.000000
vt 0.125000 0.000000
vt 0.125000 0.250000
vt 0.001992 0.001992
vt 0.998008 0.001992
vt 0.998008 0.998008
vt 0.001992 0.998008
vn 0.000000 0.000000 1.000000
vn 0.000000 0.000000 1.000000
vn 0.000000 0.000000 1.000000
vn 0.000000 0.000000 1.000000
vn 0.000000 1.000000 0.000000
vn 0.000000 1.000000 0.000000
vn 0.000000 1.000000 0.000000
vn 0.000000 1.000000 0.000000
vn 0.000000 0.000000 -1.000000
vn 0.000000 0.000000 -1.000000
vn 0.000000 0.000000 -1.000000
vn 0.000000 0.000000 -1.000000
vn 0.000000 -1.000000 0.000000
vn 0.000000 -1.000000 0.000000
vn 0.000000 -1.000000 0.000000
vn 0.000000 -1.000000 0.000000
vn 1.000000 0.000000 0.000000
vn 1.000000 0.000000 0.000000
vn 1.000000 0.000000 0.000000
vn 1.000000 0.000000 0.000000
vn -1.000000 0.000000 0.000000
vn -1.000000 0.000000 0.000000
vn -1.000000 0.000000 0.000000
vn -1.000000 0.000000 0.000000
s off
g initialShadingGroup pCube131
f 1/1/1 2/2/2 4/4/3 3/3/4
f 3/3/5 4/4/6 6/6/7 5/5/8
f 5/5/9 6/6/10 8/8/11 7/7/12
f 7/7/13 8/8/14 2/10/15 1/9/16
g pCube131
usemtl lambert30SG
f 2/13/17 8/14/18 6/15/19 4/16/20
g initialShadingGroup pCube131
f 7/11/21 1/1/22 3/3/23 5/12/24
g default
v -6.195295 3.665864 5.865476
v -6.146818 3.665864 5.865476
v -6.146818 2.753823 5.865476
v -6.195295 2.753823 5.865476
v -6.146818 2.807442 5.943746
v -6.146818 3.612246 5.943746
v -6.167452 3.612246 5.943746
v -6.167452 2.807442 5.943746
v -6.146818 2.753823 7.196859
v -6.195295 2.753823 7.196859
v -6.146818 2.807442 7.118589
v -6.167452 2.807442 7.118589
v -6.195295 3.665864 7.196859
v -6.167452 3.612246 7.118589
v -6.146818 3.612246 7.118589
v -6.146818 3.665864 7.196859
vt 0.680310 0.531543
vt 0.998008 0.531543
vt 0.998008 0.995314
vt 0.680310 0.995314
vt 0.793811 0.001987
vt 0.793811 0.465758
vt 0.785666 0.465758
vt 0.785666 0.001987
vt 0.674175 0.531543
vt 0.674175 0.995314
vt 0.666029 0.995314
vt 0.666029 0.531543
vt 0.609350 0.531543
vt 0.609350 0.849240
vt 0.601204 0.849240
vt 0.601204 0.531543
vt 0.595069 0.531543
vt 0.595069 0.849240
vt 0.586924 0.849240
vt 0.586924 0.531543
vt 0.000073 0.001992
vt 0.036339 0.001992
vt 0.036339 0.998008
vt 0.000073 0.998008
vt 0.000106 0.001992
vt 0.053047 0.001992
vt 0.053047 0.998008
vt 0.000106 0.998008
vt 0.000106 0.001992
vt 0.053047 0.001992
vt 0.053047 0.998008
vt 0.000106 0.998008
vt 0.000073 0.001992
vt 0.036339 0.001992
vt 0.036339 0.998008
vt 0.000073 0.998008
vt 0.001365 0.998008
vt 0.001365 0.001992
vt 0.683667 0.001992
vt 0.683667 0.998008
vt 0.643556 0.939454
vt 0.643556 0.060546
vt 0.041476 0.060546
vt 0.001365 0.001992
vt 0.683667 0.001992
vt 0.683667 0.998008
vt 0.001365 0.998008
vt 0.041476 0.939454
vn 0.000000 0.000000 -1.000000
vn 0.000000 0.000000 -1.000000
vn 0.000000 0.000000 -1.000000
vn 0.000000 0.000000 -1.000000
vn 0.000000 0.000000 1.000000
vn 0.000000 0.000000 1.000000
vn 0.000000 0.000000 1.000000
vn 0.000000 0.000000 1.000000
vn 0.000000 -1.000000 0.000000
vn 0.000000 -1.000000 0.000000
vn 0.000000 -1.000000 0.000000
vn 0.000000 -1.000000 0.000000
vn 0.000000 1.000000 0.000000
vn 0.000000 1.000000 0.000000
vn 0.000000 1.000000 0.000000
vn 0.000000 1.000000 0.000000
vn -1.000000 0.000000 0.000000
vn -1.000000 0.000000 0.000000
vn -1.000000 0.000000 0.000000
vn -1.000000 0.000000 0.000000
vn 1.000000 0.000000 0.000000
vn 1.000000 0.000000 0.000000
vn 1.000000 0.000000 0.000000
vn 1.000000 0.000000 0.000000
vn 0.000000 -1.000000 0.000000
vn 0.000000 -1.000000 0.000000
vn 0.000000 -1.000000 0.000000
vn 0.000000 -1.000000 0.000000
vn 0.000000 1.000000 0.000000
vn 0.000000 1.000000 0.000000
vn 0.000000 1.000000 0.000000
vn 0.000000 1.000000 0.000000
vn 0.000000 0.000000 -1.000000
vn 0.000000 0.000000 -1.000000
vn 0.000000 0.000000 -1.000000
vn 0.000000 0.000000 -1.000000
vn 0.000000 0.000000 1.000000
vn 0.000000 0.000000 1.000000
vn 0.000000 0.000000 1.000000
vn 0.000000 0.000000 1.000000
vn 1.000000 -0.000000 0.000000
vn 1.000000 -0.000002 0.000000
vn 1.000000 0.000000 0.000000
vn 1.000000 -0.000001 0.000000
vn 1.000000 -0.000002 0.000000
vn 1.000000 0.000001 0.000000
vn 1.000000 0.000002 0.000000
vn 1.000000 0.000002 0.000000
s off
g initialShadingGroup polySurface101
usemtl lambert21SG
f 9/45/25 10/46/26 11/47/27 12/48/28
f 13/29/29 14/30/30 15/31/31 16/32/32
f 12/49/33 11/50/34 17/51/35 18/52/36
f 19/21/37 13/22/38 16/23/39 20/24/40
f 12/53/41 18/54/42 21/55/43 9/56/44
g polySurface101
usemtl lambert21SG lambert30SG
f 16/17/45 15/18/46 22/19/47 20/20/48
g initialShadingGroup polySurface101
usemtl lambert21SG
f 14/25/49 23/26/50 22/27/51 15/28/52
f 21/37/53 24/38/54 10/39/55 9/40/56
f 23/33/57 19/34/58 20/35/59 22/36/60
f 18/41/61 17/42/62 24/43/63 21/44/64
s 1
f 23/57/65 14/58/66 13/59/67 11/60/68 10/61/69 24/62/70
f 17/63/71 11/60/68 13/59/67 19/64/72 23/57/65 24/62/70
