# This file uses centimeters as units for non-parametric coordinates.

mtllib licuadoraAbajo.mtl
g default
v -2.519768 1.335793 -8.104174
v -2.541808 1.357832 -8.104174
v -2.519768 1.357832 -8.126213
v -2.519768 1.357832 -7.850458
v -2.541808 1.357832 -7.872497
v -2.519768 1.335793 -7.872497
v -2.520125 1.456388 -8.126213
v -2.541808 1.452812 -8.103655
v -2.520125 1.475613 -8.102324
v -2.519372 1.424500 -7.870227
v -2.541808 1.402986 -7.872173
v -2.519508 1.399930 -7.850458
v -2.233361 1.455976 -8.126213
v -2.233168 1.475219 -8.102215
v -2.211515 1.452334 -8.103613
v -2.211515 1.399089 -7.872039
v -2.233558 1.421049 -7.869946
v -2.233668 1.396491 -7.850458
v -2.233554 1.357832 -8.126213
v -2.211515 1.357832 -8.104174
v -2.233554 1.335793 -8.104174
v -2.233554 1.335793 -7.872497
v -2.211515 1.357832 -7.872497
v -2.233554 1.357832 -7.850458
vt 0.001833 0.026110
vt 0.056752 0.026110
vt 0.001833 0.339317
vt 0.056752 0.339317
vt 0.584873 0.056911
vt 0.584873 0.001992
vt 0.888540 0.056911
vt 0.888540 0.001992
vt 0.056752 0.001992
vt 0.293425 0.001992
vt 0.302337 0.025720
vt 0.412029 0.339317
vt 0.357109 0.339317
vt 0.412029 0.026110
vt 0.357109 0.026110
vt 0.516931 0.339032
vt 0.412029 0.363436
vt 0.524545 0.363436
vt 0.350241 0.025720
vt 0.301309 0.339529
vt 0.349257 0.339740
vt 0.587297 0.350400
vt 0.585553 0.293584
vt 0.891516 0.223036
vt 0.888965 0.169427
vt 0.578154 0.338883
vt 0.569555 0.026115
vt 0.508360 0.026234
vt 0.292234 0.363436
vt 0.056752 0.363436
vt 0.613920 0.354073
vt 0.918363 0.489052
vt 0.612087 0.411097
vt 0.915621 0.543773
vt 0.514834 0.001992
vt 0.412029 0.001992
vt 0.611353 0.701498
vt 0.611353 0.646578
vt 0.915020 0.701498
vt 0.915020 0.646578
vt 0.301121 0.367109
vt 0.605340 0.367933
vt 0.301264 0.681128
vt 0.605707 0.680701
vt 0.001833 0.684801
vt 0.305500 0.684801
vt 0.001833 0.998008
vt 0.305500 0.998008
vn 0.000000 -0.707109 -0.707105
vn 0.000000 -0.707109 -0.707105
vn 0.000000 -0.707109 -0.707105
vn 0.000000 -0.707109 -0.707105
vn 0.000000 -0.707109 -0.707105
vn 0.000000 -0.707109 -0.707105
vn -0.707107 -0.707106 0.000000
vn -0.707107 -0.707106 0.000000
vn -0.707107 -0.707107 0.000000
vn -0.707107 -0.707107 0.000000
vn -0.707107 -0.707106 0.000000
vn -0.707107 -0.707107 0.000000
vn -0.707103 0.003857 -0.707100
vn -0.719602 -0.002063 -0.694384
vn -0.708549 0.003178 -0.705654
vn -0.708549 0.003178 -0.705654
vn -0.719602 -0.002063 -0.694384
vn -0.720741 -0.002609 -0.693200
vn 0.000000 -0.707101 0.707113
vn 0.000000 -0.707101 0.707113
vn 0.000000 -0.707101 0.707113
vn 0.000000 -0.707101 0.707113
vn 0.000000 -0.707101 0.707113
vn 0.000000 -0.707101 0.707113
vn -0.707094 0.004382 0.707106
vn -0.699682 -0.003387 0.714447
vn -0.705009 0.002184 0.709195
vn -0.705009 0.002184 0.709195
vn -0.699682 -0.003387 0.714447
vn -0.697995 -0.005138 0.716084
vn 0.001121 0.779063 -0.626945
vn 0.001143 0.779191 -0.626786
vn 0.001289 0.780040 -0.625728
vn 0.001289 0.780040 -0.625728
vn 0.001143 0.779191 -0.626786
vn 0.001311 0.780166 -0.625571
vn -0.720700 0.676529 0.151326
vn -0.717970 0.679406 0.151412
vn -0.693924 0.703809 0.152061
vn -0.693924 0.703809 0.152061
vn -0.717970 0.679406 0.151412
vn -0.690901 0.706762 0.152128
vn 0.006804 0.626843 0.779116
vn 0.006892 0.626155 0.779668
vn 0.007390 0.622275 0.782764
vn 0.007390 0.622275 0.782764
vn 0.006892 0.626155 0.779668
vn 0.007479 0.621575 0.783319
vn 0.718866 -0.001414 -0.695147
vn 0.717884 -0.000942 -0.696162
vn 0.708365 0.003591 -0.705837
vn 0.708365 0.003591 -0.705837
vn 0.717884 -0.000942 -0.696162
vn 0.707103 0.004187 -0.707098
vn 0.722020 0.673521 0.158289
vn 0.706057 0.690074 0.159000
vn 0.720401 0.675235 0.158366
vn 0.720401 0.675235 0.158366
vn 0.706057 0.690074 0.159000
vn 0.704309 0.691842 0.159071
vn 0.698249 -0.007957 0.715811
vn 0.700070 -0.005910 0.714050
vn 0.704939 -0.000394 0.709268
vn 0.704939 -0.000394 0.709268
vn 0.700070 -0.005910 0.714050
vn 0.707099 0.002074 0.707112
vn 0.707107 -0.707107 0.000000
vn 0.707107 -0.707107 0.000000
vn 0.707107 -0.707106 0.000000
vn 0.707107 -0.707106 0.000000
vn 0.707107 -0.707107 0.000000
vn 0.707107 -0.707106 0.000000
vn -1.000000 0.000000 -0.000000
vn -1.000000 0.000000 -0.000000
vn -1.000000 0.000000 -0.000000
vn -1.000000 0.000000 -0.000000
vn -1.000000 0.000000 -0.000000
vn -1.000000 0.000000 -0.000000
vn 0.001262 0.976599 0.215064
vn 0.006590 0.975178 0.221326
vn 0.006225 0.975277 0.220898
vn 0.006225 0.975277 0.220898
vn 0.006590 0.975178 0.221326
vn 0.011534 0.973798 0.227124
vn 1.000000 0.000000 0.000000
vn 1.000000 0.000000 0.000000
vn 1.000000 0.000000 0.000000
vn 1.000000 0.000000 0.000000
vn 1.000000 0.000000 0.000000
vn 1.000000 0.000000 0.000000
vn 0.000000 -1.000000 0.000000
vn 0.000000 -1.000000 0.000000
vn 0.000000 -1.000000 0.000000
vn 0.000000 -1.000000 0.000000
vn 0.000000 -1.000000 0.000000
vn 0.000000 -1.000000 0.000000
vn 0.000000 0.000000 1.000000
vn 0.000000 0.000000 1.000000
vn 0.000000 0.000000 1.000000
vn 0.000000 0.000000 1.000000
vn 0.000000 0.000000 1.000000
vn 0.000000 0.000000 1.000000
vn 0.000000 0.000000 -1.000000
vn 0.000000 0.000000 -1.000000
vn 0.000000 0.000000 -1.000000
vn 0.000000 0.000000 -1.000000
vn 0.000000 0.000000 -1.000000
vn 0.000000 0.000000 -1.000000
vn -0.577352 -0.577352 -0.577347
vn -0.577352 -0.577352 -0.577347
vn -0.577352 -0.577352 -0.577347
vn -0.577347 -0.577347 0.577356
vn -0.577347 -0.577347 0.577357
vn -0.577347 -0.577347 0.577356
vn -0.615394 0.614073 -0.494170
vn -0.615394 0.614073 -0.494170
vn -0.615394 0.614073 -0.494170
vn -0.557016 0.522491 0.645550
vn -0.557016 0.522491 0.645550
vn -0.557016 0.522491 0.645550
vn 0.615331 0.612562 -0.496121
vn 0.615331 0.612562 -0.496121
vn 0.615331 0.612562 -0.496121
vn 0.568961 0.509641 0.645406
vn 0.568961 0.509641 0.645406
vn 0.568961 0.509641 0.645406
vn 0.577352 -0.577351 -0.577348
vn 0.577352 -0.577351 -0.577348
vn 0.577352 -0.577351 -0.577348
vn 0.577347 -0.577347 0.577357
vn 0.577347 -0.577347 0.577357
vn 0.577347 -0.577347 0.577357
s off
g licuadoraAbajo:pCube1
usemtl licuadoraAbajo:lambert3SG
f 1/1/1 3/2/2 21/3/3
f 21/3/4 3/2/5 19/4/6
f 2/5/7 1/6/8 5/7/9
f 5/7/10 1/6/11 6/8/12
f 2/9/13 8/10/14 3/2/15
f 3/2/16 8/10/17 7/11/18
f 4/12/19 6/13/20 24/14/21
f 24/14/22 6/13/23 22/15/24
f 4/12/25 12/16/26 5/17/27
f 5/17/28 12/16/29 11/18/30
f 7/11/31 9/19/32 13/20/33
f 13/20/34 9/19/35 14/21/36
f 9/22/37 8/23/38 10/24/39
f 10/24/40 8/23/41 11/25/42
f 10/26/43 12/16/44 17/27/45
f 17/27/46 12/16/47 18/28/48
f 13/20/49 15/29/50 19/4/51
f 19/4/52 15/29/53 20/30/54
f 14/31/55 17/32/56 15/33/57
f 15/33/58 17/32/59 16/34/60
f 16/35/61 18/28/62 23/36/63
f 23/36/64 18/28/65 24/14/66
f 21/37/67 20/38/68 22/39/69
f 22/39/70 20/38/71 23/40/72
f 5/7/73 11/25/74 2/5/75
f 2/5/76 11/25/77 8/23/78
f 9/41/79 10/42/80 14/43/81
f 14/43/82 10/42/83 17/44/84
f 15/33/85 16/34/86 20/38/87
f 20/38/88 16/34/89 23/40/90
f 21/45/91 22/46/92 1/47/93
f 1/47/94 22/46/95 6/48/96
f 24/14/97 18/28/98 4/12/99
f 4/12/100 18/28/101 12/16/102
f 19/4/103 3/2/104 13/20/105
f 13/20/106 3/2/107 7/11/108
f 1/1/109 2/9/110 3/2/111
f 4/12/112 5/17/113 6/13/114
f 7/11/115 8/10/116 9/19/117
f 10/26/118 11/18/119 12/16/120
f 13/20/121 14/21/122 15/29/123
f 16/35/124 17/27/125 18/28/126
f 19/4/127 20/30/128 21/3/129
f 22/15/130 23/36/131 24/14/132
