# This file uses centimeters as units for non-parametric coordinates.

mtllib Microondas.mtl
g default
v -3.493911 1.415078 -7.473535
v -3.495217 1.415078 -7.477271
v -3.495217 1.628348 -7.477271
v -3.493911 1.628348 -7.473535
v -3.503631 1.420951 -7.470138
v -3.503631 1.622475 -7.470138
v -3.504937 1.622475 -7.473873
v -3.504937 1.420951 -7.473873
v -3.846841 1.628348 -7.350169
v -3.848147 1.628348 -7.353905
v -3.837122 1.622475 -7.353567
v -3.838427 1.622475 -7.357302
v -3.838427 1.420951 -7.357302
v -3.837122 1.420951 -7.353567
v -3.848147 1.415078 -7.353905
v -3.846841 1.415078 -7.350169
vt 0.847434 0.530834
vt 0.899932 0.530834
vt 0.899932 0.899773
vt 0.847434 0.899773
vt 0.783153 0.530834
vt 0.783153 0.879452
vt 0.730655 0.879452
vt 0.730655 0.530834
vt 0.724763 0.530834
vt 0.724763 0.879452
vt 0.672265 0.879452
vt 0.672265 0.530834
vt 0.789044 0.530834
vt 0.841542 0.530834
vt 0.841542 0.899773
vt 0.789044 0.899773
vt 0.001913 0.527002
vt 0.001913 0.001992
vt 0.054411 0.001992
vt 0.054411 0.527002
vt 0.926695 0.001992
vt 0.926695 0.498084
vt 0.874197 0.498084
vt 0.874197 0.001992
vt 0.958323 0.501917
vt 0.958323 0.998008
vt 0.905825 0.998008
vt 0.905825 0.501917
vt 0.061986 0.527002
vt 0.061986 0.001992
vt 0.114484 0.001992
vt 0.114484 0.527002
vt 0.480650 0.016451
vt 0.132033 0.016451
vt 0.132033 0.512542
vt 0.121873 0.527001
vt 0.121873 0.001992
vt 0.490811 0.001992
vt 0.480650 0.512542
vt 0.490811 0.527001
vt 0.498035 0.001992
vt 0.866974 0.001992
vt 0.866974 0.527001
vt 0.856814 0.512542
vt 0.856814 0.016451
vt 0.508196 0.016451
vt 0.498035 0.527001
vt 0.508196 0.512542
vn 0.943991 0.000000 -0.329971
vn 0.943991 0.000000 -0.329971
vn 0.943991 0.000000 -0.329971
vn 0.943991 0.000000 -0.329971
vn -0.943991 0.000000 0.329971
vn -0.943991 0.000000 0.329971
vn -0.943991 0.000000 0.329971
vn -0.943991 0.000000 0.329971
vn 0.000000 1.000000 0.000000
vn 0.000000 1.000000 0.000000
vn 0.000000 1.000000 0.000000
vn 0.000000 1.000000 0.000000
vn 0.000000 -1.000000 0.000000
vn 0.000000 -1.000000 0.000000
vn 0.000000 -1.000000 0.000000
vn 0.000000 -1.000000 0.000000
vn 0.000000 1.000000 0.000000
vn 0.000000 1.000000 0.000000
vn 0.000000 1.000000 0.000000
vn 0.000000 1.000000 0.000000
vn 0.000000 -1.000000 0.000000
vn 0.000000 -1.000000 0.000000
vn 0.000000 -1.000000 0.000000
vn 0.000000 -1.000000 0.000000
vn 0.943991 0.000000 -0.329971
vn 0.943991 0.000000 -0.329971
vn 0.943991 0.000000 -0.329971
vn 0.943991 0.000000 -0.329971
vn -0.943991 0.000000 0.329971
vn -0.943991 0.000000 0.329971
vn -0.943991 0.000000 0.329971
vn -0.943991 0.000000 0.329971
vn 0.329970 0.000000 0.943991
vn 0.329973 0.000000 0.943990
vn 0.329971 0.000000 0.943991
vn 0.329970 0.000000 0.943991
vn 0.329973 0.000000 0.943990
vn 0.329971 0.000000 0.943991
vn 0.329968 0.000000 0.943992
vn 0.329968 0.000000 0.943992
vn -0.329971 0.000000 -0.943991
vn -0.329972 0.000000 -0.943991
vn -0.329971 0.000000 -0.943991
vn -0.329971 0.000000 -0.943991
vn -0.329972 0.000000 -0.943991
vn -0.329971 0.000000 -0.943991
vn -0.329971 0.000000 -0.943991
vn -0.329971 0.000000 -0.943991
s off
g initialShadingGroup polySurface102
usemtl lambert29SG
f 1/1/1 2/2/2 3/3/3 4/4/4
f 5/5/5 6/6/6 7/7/7 8/8/8
f 9/17/9 4/18/10 3/19/11 10/20/12
f 6/21/13 11/22/14 12/23/15 7/24/16
f 8/25/17 13/26/18 14/27/19 5/28/20
f 15/29/21 2/30/22 1/31/23 16/32/24
f 13/9/25 12/10/26 11/11/27 14/12/28
f 15/13/29 16/14/30 9/15/31 10/16/32
s 1
f 6/33/33 5/34/34 14/35/35 16/36/36 1/37/37 4/38/38
f 16/36/36 14/35/35 11/39/39 6/33/33 4/38/38 9/40/40
s 2
f 3/41/41 2/42/42 15/43/43 13/44/44 8/45/45 7/46/46
f 10/47/47 3/41/41 7/46/46 12/48/48 13/44/44 15/43/43
g default
v -3.384101 1.384894 -7.515142
v -3.265030 1.384894 -7.556763
v -3.384101 1.647165 -7.515142
v -3.265030 1.647165 -7.556763
v -3.384615 1.647165 -7.516614
v -3.265544 1.647165 -7.558235
v -3.384615 1.384894 -7.516614
v -3.265544 1.384894 -7.558235
vt 0.375000 0.000000
vt 0.625000 0.000000
vt 0.375000 0.250000
vt 0.625000 0.250000
vt 0.375000 0.500000
vt 0.625000 0.500000
vt 0.375000 0.750000
vt 0.625000 0.750000
vt 0.375000 1.000000
vt 0.625000 1.000000
vt 0.875000 0.000000
vt 0.875000 0.250000
vt 0.125000 0.000000
vt 0.125000 0.250000
vt 0.001992 0.001992
vt 0.998008 0.001992
vt 0.998008 0.998008
vt 0.001992 0.998008
vn 0.329973 0.000000 0.943990
vn 0.329973 0.000000 0.943990
vn 0.329973 0.000000 0.943990
vn 0.329973 0.000000 0.943990
vn 0.000000 1.000000 0.000000
vn 0.000000 1.000000 0.000000
vn 0.000000 1.000000 0.000000
vn 0.000000 1.000000 0.000000
vn -0.329973 0.000000 -0.943990
vn -0.329973 0.000000 -0.943990
vn -0.329973 0.000000 -0.943990
vn -0.329973 0.000000 -0.943990
vn 0.000000 -1.000000 0.000000
vn 0.000000 -1.000000 0.000000
vn 0.000000 -1.000000 0.000000
vn 0.000000 -1.000000 0.000000
vn 0.943990 0.000000 -0.329973
vn 0.943990 0.000000 -0.329973
vn 0.943990 0.000000 -0.329973
vn 0.943990 0.000000 -0.329973
vn -0.943990 0.000000 0.329973
vn -0.943990 0.000000 0.329973
vn -0.943990 0.000000 0.329973
vn -0.943990 0.000000 0.329973
s off
g pCube132
usemtl lambert32SG
f 17/63/49 18/64/50 20/65/51 19/66/52
g initialShadingGroup pCube132
f 19/51/53 20/52/54 22/54/55 21/53/56
f 21/53/57 22/54/58 24/56/59 23/55/60
f 23/55/61 24/56/62 18/58/63 17/57/64
f 18/50/65 24/59/66 22/60/67 20/52/68
f 23/61/69 17/49/70 19/51/71 21/62/72
g default
v -4.051752 1.340741 -7.797287
v -4.057988 1.347432 -7.795126
v -4.053846 1.347417 -7.803556
v -3.257920 1.340521 -7.561741
v -3.260117 1.333907 -7.568040
v -3.253777 1.340505 -7.570180
v -3.896822 1.345179 -7.343607
v -3.899022 1.338565 -7.349905
v -3.905258 1.345257 -7.347744
v -3.412849 1.336079 -8.015421
v -4.051022 1.699494 -7.802811
v -3.412117 1.694833 -8.020944
v -3.414943 1.342756 -8.021699
v -3.403684 1.694756 -8.016806
v -3.250956 1.692580 -7.569432
v -3.406507 1.342681 -8.017553
v -3.255096 1.692596 -7.560994
v -3.893996 1.697256 -7.342852
v -3.902435 1.697334 -7.346997
v -4.055162 1.699507 -7.794371
v -3.257188 1.699273 -7.567264
v -3.409920 1.701448 -8.014645
v -4.048822 1.706109 -7.796512
v -3.896092 1.703933 -7.349131
v -3.850957 1.416635 -7.359372
v -3.849249 1.629107 -7.358914
v -3.846612 1.629071 -7.351186
v -3.848314 1.416600 -7.351637
v -3.495282 1.414040 -7.480806
v -3.492645 1.414006 -7.473078
v -3.493578 1.626513 -7.480355
v -3.490941 1.626475 -7.472628
v -3.395211 1.379178 -7.506504
v -3.397710 1.379216 -7.513824
v -3.395419 1.665044 -7.513220
v -3.392920 1.665008 -7.505900
v -3.890888 1.668640 -7.335882
v -3.893386 1.668676 -7.343202
v -3.895677 1.382846 -7.343806
v -3.893179 1.382811 -7.336486
v -3.886943 1.376119 -7.338646
v -3.401554 1.372579 -7.504372
v -3.399157 1.671697 -7.503739
v -3.884545 1.675240 -7.338015
v -3.410393 1.619415 -7.473536
v -3.414936 1.623099 -7.465769
v -3.416630 1.409256 -7.466161
v -3.424982 1.412929 -7.469562
v -3.423325 1.619511 -7.469124
v -3.420405 1.416506 -7.477376
v -3.418787 1.615828 -7.476890
v -3.412051 1.412835 -7.473975
v -3.429769 1.383159 -7.504090
v -3.437422 1.387930 -7.505463
v -3.432143 1.392609 -7.511245
v -3.424488 1.387835 -7.509875
v -3.427710 1.651513 -7.503796
v -3.435347 1.646591 -7.504915
v -3.430055 1.641573 -7.510446
v -3.422416 1.646495 -7.509327
v -3.889441 1.376157 -7.345967
v -3.404053 1.372614 -7.511691
v -3.401655 1.671733 -7.511059
v -3.887043 1.675275 -7.345335
vt 0.406562 0.719945
vt 0.405369 0.965082
vt 0.212451 0.964673
vt 0.410229 0.721129
vt 0.405379 0.969706
vt 0.213644 0.719536
vt 0.409038 0.966270
vt 0.212461 0.969297
vt 0.210027 0.720705
vt 0.208836 0.965845
vt 0.198409 0.712757
vt 0.199600 0.957894
vt 0.006681 0.958307
vt 0.202025 0.713926
vt 0.199592 0.962518
vt 0.005489 0.713166
vt 0.203217 0.959067
vt 0.006673 0.962927
vt 0.001823 0.714350
vt 0.003014 0.959492
vt 0.639474 0.801694
vt 0.639223 0.918117
vt 0.634988 0.918097
vt 0.635235 0.801675
vt 0.645933 0.918117
vt 0.645686 0.801693
vt 0.649921 0.801675
vt 0.650167 0.918096
vt 0.584794 0.805291
vt 0.588805 0.805311
vt 0.588474 0.961930
vt 0.583626 0.801675
vt 0.584463 0.961910
vt 0.587636 0.801694
vt 0.587290 0.965595
vt 0.583279 0.965575
vt 0.576324 0.961961
vt 0.572313 0.961980
vt 0.571982 0.805361
vt 0.575155 0.965577
vt 0.575992 0.805342
vt 0.571144 0.965596
vt 0.570798 0.801696
vt 0.574809 0.801675
vt 0.124788 0.436969
vt 0.250403 0.003196
vt 0.369930 0.353281
vt 0.005263 0.086884
vt 0.373381 0.352076
vt 0.001822 0.088032
vt 0.253855 0.001992
vt 0.371114 0.356699
vt 0.121353 0.438117
vt 0.004094 0.083409
vt 0.502975 0.003138
vt 0.748116 0.086828
vt 0.628591 0.436912
vt 0.751568 0.088031
vt 0.383449 0.353224
vt 0.749300 0.083410
vt 0.632042 0.438117
vt 0.380010 0.352075
vt 0.382280 0.356700
vt 0.499539 0.001992
vt 0.488232 0.720980
vt 0.421693 0.915871
vt 0.417454 0.914423
vt 0.483997 0.719536
vt 0.560669 0.998008
vt 0.494126 0.803120
vt 0.498360 0.801675
vt 0.564904 0.996563
vt 0.339349 0.707737
vt 0.335337 0.709105
vt 0.244529 0.443139
vt 0.248540 0.441769
vt 0.234905 0.441769
vt 0.238916 0.443138
vt 0.148108 0.709105
vt 0.144097 0.707736
vt 0.717545 0.796476
vt 0.720099 0.446390
vt 0.913018 0.447938
vt 0.720141 0.441769
vt 0.910464 0.798023
vt 0.913059 0.443316
vt 0.709335 0.441769
vt 0.711889 0.791852
vt 0.518969 0.793401
vt 0.516417 0.443316
vt 0.711932 0.796476
vt 0.519012 0.798023
vt 0.350569 0.715884
vt 0.369083 0.691300
vt 0.485506 0.690368
vt 0.346902 0.712467
vt 0.507188 0.714629
vt 0.367662 0.496413
vt 0.510804 0.711153
vt 0.344962 0.446500
vt 0.484083 0.495479
vt 0.348578 0.443024
vt 0.508863 0.445186
vt 0.505197 0.441769
vt 0.602576 0.817987
vt 0.607153 0.815974
vt 0.608081 0.933149
vt 0.595760 0.804289
vt 0.610570 0.931130
vt 0.603484 0.931183
vt 0.599953 0.801675
vt 0.609662 0.817936
vt 0.601082 0.948718
vt 0.596897 0.946021
vt 0.628166 0.929708
vt 0.623588 0.927696
vt 0.624475 0.818479
vt 0.621351 0.943407
vt 0.621988 0.816460
vt 0.629075 0.816513
vt 0.617157 0.940791
vt 0.621081 0.929656
vt 0.618301 0.804372
vt 0.622487 0.801675
vt 0.672645 0.821346
vt 0.670684 0.825628
vt 0.656384 0.804844
vt 0.658947 0.801675
vt 0.707091 0.824514
vt 0.704527 0.821346
vt 0.718224 0.801675
vt 0.720184 0.805956
vt 0.725923 0.805930
vt 0.727941 0.801675
vt 0.742780 0.821287
vt 0.740030 0.824317
vt 0.681582 0.825543
vt 0.679564 0.821287
vt 0.694403 0.801675
vt 0.697152 0.804706
vn -0.740944 -0.667886 -0.070220
vn -0.878486 -0.443199 -0.178430
vn -0.857876 -0.295201 -0.420601
vn 0.685808 -0.483196 0.544232
vn 0.408276 -0.697295 0.589145
vn 0.877741 -0.208797 0.431248
vn 0.685808 -0.483196 0.544232
vn -0.181094 -0.450992 0.873963
vn 0.408276 -0.697295 0.589145
vn -0.074330 -0.674890 0.734165
vn 0.408276 -0.697295 0.589145
vn -0.181094 -0.450992 0.873963
vn -0.422508 -0.301304 0.854812
vn -0.074330 -0.674890 0.734165
vn -0.181094 -0.450992 0.873963
vn -0.007993 -0.999966 -0.002112
vn -0.007993 -0.999966 -0.002112
vn -0.007993 -0.999966 -0.002112
vn -0.007993 -0.999966 -0.002112
vn -0.007993 -0.999966 -0.002112
vn -0.007993 -0.999966 -0.002112
vn -0.323036 0.004600 -0.946376
vn -0.323036 0.004600 -0.946376
vn -0.323036 0.004600 -0.946376
vn -0.323036 0.004600 -0.946376
vn -0.323036 0.004600 -0.946376
vn -0.323036 0.004600 -0.946376
vn 0.946331 -0.006900 -0.323126
vn 0.946331 -0.006900 -0.323126
vn 0.946331 -0.006900 -0.323126
vn 0.946331 -0.006900 -0.323126
vn 0.946331 -0.006900 -0.323126
vn 0.946331 -0.006900 -0.323126
vn 0.323036 -0.004600 0.946376
vn 0.323036 -0.004600 0.946376
vn 0.323036 -0.004600 0.946376
vn 0.323036 -0.004600 0.946376
vn -0.946331 0.006900 0.323126
vn -0.946331 0.006900 0.323126
vn -0.946331 0.006900 0.323126
vn -0.946331 0.006900 0.323126
vn -0.946331 0.006900 0.323126
vn -0.946331 0.006900 0.323126
vn 0.007993 0.999966 0.002112
vn 0.007993 0.999966 0.002112
vn 0.007993 0.999966 0.002112
vn 0.007993 0.999966 0.002112
vn 0.007993 0.999966 0.002112
vn 0.007993 0.999966 0.002112
vn 0.946363 -0.006900 -0.323032
vn 0.946331 -0.006900 -0.323126
vn 0.946331 -0.006900 -0.323126
vn 0.946331 -0.006900 -0.323126
vn 0.946363 -0.006900 -0.323032
vn 0.946363 -0.006900 -0.323032
vn 0.007964 0.999966 0.002017
vn 0.007964 0.999966 0.002017
vn 0.007964 0.999966 0.002017
vn 0.007964 0.999966 0.002017
vn 0.007964 0.999966 0.002017
vn 0.007964 0.999966 0.002017
vn -0.946331 0.006900 0.323126
vn -0.946331 0.006900 0.323126
vn -0.946331 0.006900 0.323126
vn -0.946331 0.006900 0.323126
vn -0.946363 0.006900 0.323032
vn -0.946331 0.006900 0.323126
vn -0.007964 -0.999966 -0.002017
vn -0.007964 -0.999966 -0.002017
vn -0.007964 -0.999966 -0.002017
vn -0.007964 -0.999966 -0.002017
vn -0.007964 -0.999966 -0.002017
vn -0.007964 -0.999966 -0.002017
vn 0.946331 -0.006900 -0.323126
vn 0.946331 -0.006900 -0.323126
vn 0.946331 -0.006900 -0.323126
vn 0.946331 -0.006900 -0.323126
vn 0.946331 -0.006900 -0.323126
vn 0.946331 -0.006900 -0.323126
vn -0.946331 0.006900 0.323126
vn -0.946331 0.006900 0.323126
vn -0.946331 0.006900 0.323126
vn -0.946363 0.006900 0.323032
vn -0.946363 0.006900 0.323032
vn -0.946363 0.006900 0.323032
vn 0.534854 0.354898 -0.766798
vn 0.422394 0.301212 -0.854900
vn 0.596243 0.688794 -0.412379
vn 0.422394 0.301212 -0.854900
vn 0.534854 0.354898 -0.766798
vn 0.430101 -0.202305 -0.879821
vn 0.541377 -0.479418 -0.690702
vn 0.430101 -0.202305 -0.879821
vn 0.534854 0.354898 -0.766798
vn -0.422508 -0.301304 0.854812
vn -0.181094 -0.450992 0.873963
vn -0.430220 0.202402 0.879741
vn -0.091319 0.553630 0.827741
vn -0.430220 0.202402 0.879741
vn -0.181094 -0.450992 0.873963
vn -0.430220 0.202402 0.879741
vn -0.091319 0.553630 0.827741
vn -0.063629 0.672996 0.736904
vn -0.063629 0.672996 0.736904
vn -0.091319 0.553630 0.827741
vn 0.419640 0.687756 0.592363
vn 0.770471 0.350011 0.532792
vn 0.419640 0.687756 0.592363
vn -0.091319 0.553630 0.827741
vn 0.770471 0.350011 0.532792
vn 0.857987 0.294796 0.420659
vn 0.419640 0.687756 0.592363
vn 0.857987 0.294796 0.420659
vn 0.770471 0.350011 0.532792
vn 0.877741 -0.208797 0.431248
vn 0.685808 -0.483196 0.544232
vn 0.877741 -0.208797 0.431248
vn 0.770471 0.350011 0.532792
vn 0.323036 -0.004400 0.946376
vn 0.323036 -0.004600 0.946376
vn 0.323036 -0.004600 0.946376
vn 0.323036 -0.004400 0.946376
vn 0.323036 -0.004400 0.946376
vn 0.323036 -0.004600 0.946376
vn 0.323036 -0.004600 0.946376
vn 0.323036 -0.004600 0.946376
vn 0.323036 -0.004400 0.946376
vn 0.323036 -0.004400 0.946376
vn 0.323130 -0.005200 0.946340
vn 0.323036 -0.004600 0.946376
vn 0.323036 -0.004600 0.946376
vn 0.323130 -0.005200 0.946340
vn 0.323130 -0.004900 0.946342
vn 0.323036 -0.004600 0.946376
vn 0.323130 -0.004900 0.946342
vn 0.323131 -0.004500 0.946344
vn 0.323131 -0.004500 0.946344
vn 0.323036 -0.004600 0.946376
vn 0.323036 -0.004600 0.946376
vn 0.323131 -0.004400 0.946344
vn 0.323036 -0.004600 0.946376
vn 0.323131 -0.004500 0.946344
vn 0.323036 -0.004600 0.946376
vn 0.323131 -0.004400 0.946344
vn 0.323036 -0.004600 0.946376
vn 0.323036 -0.004600 0.946376
vn 0.323036 -0.004600 0.946376
vn 0.323036 -0.004600 0.946376
vn 0.323036 -0.004600 0.946376
vn 0.323036 -0.004600 0.946376
vn 0.323036 -0.004600 0.946376
vn 0.323036 -0.004600 0.946376
vn 0.323036 -0.004600 0.946376
vn 0.323036 -0.004400 0.946376
vn 0.541377 -0.479418 -0.690702
vn 0.585164 -0.696492 -0.415308
vn 0.430101 -0.202305 -0.879821
vn 0.957033 -0.156498 -0.244123
vn 0.294069 0.449901 0.843275
vn 0.279169 -0.473313 0.835488
vn -0.903198 0.160291 0.398171
vn 0.279169 -0.473313 0.835488
vn 0.294069 0.449901 0.843275
vn 0.294069 0.449901 0.843275
vn -0.957169 0.158205 0.242486
vn -0.903198 0.160291 0.398171
vn -0.280090 0.469918 -0.837094
vn -0.903198 0.160291 0.398171
vn -0.957169 0.158205 0.242486
vn -0.957169 0.158205 0.242486
vn -0.294289 -0.445908 -0.845317
vn -0.280090 0.469918 -0.837094
vn 0.902362 -0.161706 -0.399492
vn -0.280090 0.469918 -0.837094
vn -0.294289 -0.445908 -0.845317
vn -0.294289 -0.445908 -0.845317
vn 0.957033 -0.156498 -0.244123
vn 0.902362 -0.161706 -0.399492
vn 0.279169 -0.473313 0.835488
vn 0.902362 -0.161706 -0.399492
vn 0.957033 -0.156498 -0.244123
vn 0.902362 -0.161706 -0.399492
vn 0.279169 -0.473313 0.835488
vn 0.437619 -0.803575 0.403432
vn -0.829010 -0.283484 0.482057
vn 0.437619 -0.803575 0.403432
vn 0.279169 -0.473313 0.835488
vn 0.279169 -0.473313 0.835488
vn -0.903198 0.160291 0.398171
vn -0.829010 -0.283484 0.482057
vn -0.440261 0.799364 -0.408885
vn -0.829010 -0.283484 0.482057
vn -0.903198 0.160291 0.398171
vn -0.903198 0.160291 0.398171
vn -0.280090 0.469918 -0.837094
vn -0.440261 0.799364 -0.408885
vn 0.827959 0.281194 -0.485194
vn -0.440261 0.799364 -0.408885
vn -0.280090 0.469918 -0.837094
vn -0.280090 0.469918 -0.837094
vn 0.902362 -0.161706 -0.399492
vn 0.827959 0.281194 -0.485194
vn 0.437619 -0.803575 0.403432
vn 0.827959 0.281194 -0.485194
vn 0.902362 -0.161706 -0.399492
vn -0.092733 0.780437 0.618319
vn -0.956281 -0.269187 0.114299
vn -0.957169 0.158205 0.242486
vn -0.294289 -0.445908 -0.845317
vn -0.957169 0.158205 0.242486
vn -0.956281 -0.269187 0.114299
vn -0.956281 -0.269187 0.114299
vn 0.091560 -0.775199 -0.625047
vn -0.294289 -0.445908 -0.845317
vn 0.957033 -0.156498 -0.244123
vn -0.294289 -0.445908 -0.845317
vn 0.091560 -0.775199 -0.625047
vn 0.091560 -0.775199 -0.625047
vn 0.954200 0.273809 -0.120548
vn 0.957033 -0.156498 -0.244123
vn 0.294069 0.449901 0.843275
vn 0.957033 -0.156498 -0.244123
vn 0.954200 0.273809 -0.120548
vn 0.954200 0.273809 -0.120548
vn -0.092733 0.780437 0.618319
vn 0.294069 0.449901 0.843275
vn -0.957169 0.158205 0.242486
vn 0.294069 0.449901 0.843275
vn -0.092733 0.780437 0.618319
vn -0.674823 -0.702207 0.226979
vn -0.674697 -0.702306 0.227045
vn -0.485139 -0.859408 0.161427
vn -0.485139 -0.859408 0.161427
vn -0.246902 -0.965769 0.079553
vn -0.674823 -0.702207 0.226979
vn -0.246902 -0.965769 0.079553
vn -0.485139 -0.859408 0.161427
vn 0.231347 -0.969255 -0.083808
vn 0.231347 -0.969255 -0.083808
vn 0.471392 -0.866314 -0.165199
vn -0.246902 -0.965769 0.079553
vn 0.471392 -0.866314 -0.165199
vn 0.231347 -0.969255 -0.083808
vn 0.663462 -0.711972 -0.230029
vn 0.663637 -0.711825 -0.229981
vn 0.663637 -0.711825 -0.229981
vn 0.471535 -0.866247 -0.165140
vn -0.234019 -0.704007 -0.670529
vn -0.234049 -0.703907 -0.670624
vn -0.234019 -0.704007 -0.670529
vn -0.234062 -0.703857 -0.670672
vn -0.234019 -0.704007 -0.670529
vn -0.234049 -0.703907 -0.670624
vn 0.541377 -0.479418 -0.690702
vn 0.663590 -0.711874 -0.229964
vn 0.585164 -0.696492 -0.415308
vn 0.663590 -0.711874 -0.229964
vn 0.585164 -0.696492 -0.415308
vn 0.663590 -0.711874 -0.229964
vn -0.740944 -0.667886 -0.070220
vn -0.674918 -0.702106 0.227009
vn -0.878486 -0.443199 -0.178430
vn -0.674918 -0.702106 0.227009
vn -0.878486 -0.443199 -0.178430
vn -0.674918 -0.702106 0.227009
vn -0.222819 0.710136 -0.667877
vn -0.222819 0.710136 -0.667877
vn -0.222773 0.710285 -0.667733
vn -0.222773 0.710285 -0.667733
vn -0.222773 0.710285 -0.667733
vn -0.222819 0.710136 -0.667877
vn 0.534854 0.354898 -0.766798
vn 0.596243 0.688794 -0.412379
vn 0.674918 0.702106 -0.227009
vn 0.674918 0.702106 -0.227009
vn 0.674918 0.702106 -0.227009
vn 0.596243 0.688794 -0.412379
vn -0.730318 0.679768 -0.067456
vn -0.822276 0.561209 -0.094375
vn -0.663445 0.712024 0.229920
vn -0.663445 0.712024 0.229920
vn -0.663445 0.712024 0.229920
vn -0.822276 0.561209 -0.094375
vn -0.730318 0.679768 -0.067456
vn -0.877778 0.208606 -0.431266
vn -0.822276 0.561209 -0.094375
vn -0.822276 0.561209 -0.094375
vn -0.877778 0.208606 -0.431266
vn -0.878486 -0.443199 -0.178430
vn -0.857876 -0.295201 -0.420601
vn -0.878486 -0.443199 -0.178430
vn -0.877778 0.208606 -0.431266
vn 0.674918 0.702106 -0.227009
vn 0.674918 0.702106 -0.227009
vn 0.485210 0.859364 -0.161449
vn 0.485210 0.859364 -0.161449
vn 0.246985 0.965737 -0.079684
vn 0.674918 0.702106 -0.227009
vn 0.246985 0.965737 -0.079684
vn 0.485210 0.859364 -0.161449
vn -0.231325 0.969261 0.083800
vn -0.231325 0.969261 0.083800
vn -0.471309 0.866383 0.165068
vn 0.246985 0.965737 -0.079684
vn -0.471309 0.866383 0.165068
vn -0.231325 0.969261 0.083800
vn -0.663317 0.712121 0.229985
vn -0.663525 0.711975 0.229839
vn -0.663525 0.711975 0.229839
vn -0.471340 0.866385 0.164973
s off
g initialShadingGroupMesh7
usemtl lambert22SG
f 25/86/73 26/79/74 27/84/75
f 28/74/76 29/76/77 30/69/78
f 28/117/79 31/115/80 29/112/81
f 32/113/82 29/112/83 31/115/84
f 33/118/85 32/113/86 31/115/87
f 25/111/88 29/112/89 32/113/90
f 29/112/91 25/111/92 34/114/93
f 35/147/94 36/148/95 37/149/96
f 37/149/97 27/151/98 35/147/99
f 38/67/100 39/68/101 30/69/102
f 30/69/103 40/72/104 38/67/105
f 41/153/106 42/154/107 31/155/108 28/156/109
f 43/77/110 44/78/111 26/79/112
f 26/79/113 33/82/114 43/77/115
f 45/121/116 46/122/117 47/123/118
f 47/123/119 48/125/120 45/121/121
f 49/87/122 50/88/123 51/89/124
f 51/89/125 52/90/126 49/87/127
f 53/131/128 49/132/129 52/133/130
f 52/133/131 54/134/132 53/131/133
f 55/91/134 53/92/135 54/93/136
f 54/93/137 56/94/138 55/91/139
f 50/135/140 55/136/141 56/137/142
f 56/137/143 51/138/144 50/135/145
f 57/95/146 58/96/147 59/97/148
f 59/97/149 60/99/150 57/95/151
f 61/103/152 62/104/153 63/105/154
f 63/105/155 64/107/156 61/103/157
f 38/126/158 36/124/159 46/122/160
f 36/148/161 38/150/162 37/149/163
f 40/152/164 37/149/165 38/150/166
f 33/158/167 31/155/168 43/157/169
f 42/154/170 43/157/171 31/155/172
f 43/129/173 42/128/174 48/125/175
f 48/125/176 42/128/177 45/121/178
f 41/130/179 45/121/180 42/128/181
f 41/71/182 39/68/183 45/73/184
f 39/68/185 41/71/186 30/69/187
f 28/74/188 30/69/189 41/71/190
f 64/159/191 52/160/192 51/161/193
f 64/159/194 65/162/195 52/160/196
f 54/164/197 52/160/198 65/162/199
f 65/162/200 66/166/201 54/164/202
f 54/164/203 66/166/204 57/168/205
f 54/164/206 57/168/207 60/170/208
f 60/170/209 56/167/210 54/164/211
f 67/169/212 56/167/213 60/170/214
f 56/167/215 67/169/216 68/165/217
f 68/165/218 51/161/219 56/167/220
f 68/165/221 61/163/222 51/161/223
f 51/161/224 61/163/225 64/159/226
f 40/120/227 34/114/228 37/116/229
f 69/175/230 70/173/231 71/172/232
f 72/171/233 71/172/234 70/173/235
f 70/173/236 73/176/237 72/171/238
f 74/182/239 72/188/240 73/185/241
f 73/185/242 75/183/243 74/182/244
f 76/181/245 74/182/246 75/183/247
f 75/183/248 69/186/249 76/181/250
f 71/172/251 76/178/252 69/175/253
f 76/191/254 71/192/255 77/193/256
f 78/174/257 77/177/258 71/172/259
f 71/172/260 72/171/261 78/174/262
f 79/195/263 78/196/264 72/197/265
f 72/197/266 74/198/267 79/195/268
f 80/184/269 79/187/270 74/182/271
f 74/182/272 76/181/273 80/184/274
f 77/193/275 80/194/276 76/191/277
f 81/179/278 82/180/279 73/176/280
f 75/199/281 73/200/282 82/201/283
f 82/201/284 83/202/285 75/199/286
f 69/186/287 75/183/288 83/189/289
f 83/189/290 84/190/291 69/186/292
f 70/203/293 69/204/294 84/205/295
f 84/205/296 81/206/297 70/203/298
f 73/176/299 70/173/300 81/179/301
f 64/107/302 63/105/303 85/109/304
f 85/109/305 65/110/306 64/107/307
f 65/139/308 85/140/309 86/141/310
f 86/141/311 66/142/312 65/139/313
f 66/98/314 86/100/315 58/96/316
f 58/96/317 57/95/318 66/98/319
f 27/119/320 37/116/321 25/111/322
f 34/114/323 25/111/324 37/116/325
f 40/72/326 30/69/327 34/75/328
f 29/76/329 34/75/330 30/69/331
f 25/86/332 32/85/333 26/79/334
f 33/82/335 26/79/336 32/85/337
f 35/127/338 47/123/339 36/124/340
f 46/122/341 36/124/342 47/123/343
f 38/67/344 46/70/345 39/68/346
f 45/73/347 39/68/348 46/70/349
f 47/83/350 44/78/351 48/80/352
f 43/77/353 48/80/354 44/78/355
f 47/83/356 35/81/357 44/78/358
f 44/78/359 35/81/360 26/79/361
f 27/84/362 26/79/363 35/81/364
f 60/99/365 59/97/366 87/101/367
f 87/101/368 67/102/369 60/99/370
f 67/143/371 87/144/372 88/145/373
f 88/145/374 68/146/375 67/143/376
f 68/106/377 88/108/378 62/104/379
f 62/104/380 61/103/381 68/106/382
